<svg xmlns="http://www.w3.org/2000/svg" viewBox="0 0 600 600" fill="none">
  <g stroke="#F2A93B" stroke-width="1" opacity="0.5" stroke-linecap="round">
    <line x1="300" y1="300" x2="300" y2="40"/>
    <line x1="300" y1="300" x2="300" y2="560"/>
    <line x1="300" y1="300" x2="40" y2="300"/>
    <line x1="300" y1="300" x2="560" y2="300"/>
    <line x1="300" y1="300" x2="120" y2="120"/>
    <line x1="300" y1="300" x2="480" y2="480"/>
    <line x1="300" y1="300" x2="480" y2="120"/>
    <line x1="300" y1="300" x2="120" y2="480"/>
  </g>
  <g stroke="#3FA796" stroke-width="0.75" opacity="0.4" stroke-linecap="round">
    <line x1="300" y1="300" x2="220" y2="60"/>
    <line x1="300" y1="300" x2="380" y2="60"/>
    <line x1="300" y1="300" x2="220" y2="540"/>
    <line x1="300" y1="300" x2="380" y2="540"/>
    <line x1="300" y1="300" x2="60" y2="220"/>
    <line x1="300" y1="300" x2="60" y2="380"/>
    <line x1="300" y1="300" x2="540" y2="220"/>
    <line x1="300" y1="300" x2="540" y2="380"/>
  </g>
  <circle cx="300" cy="300" r="6" fill="#F2A93B"/>
  <circle cx="300" cy="300" r="60" stroke="#242A36" stroke-width="1" opacity="0.6"/>
  <circle cx="300" cy="300" r="140" stroke="#242A36" stroke-width="1" opacity="0.4"/>
</svg>
